<?xml version="1.0" standalone="no"?><!DOCTYPE svg PUBLIC "-//W3C//DTD SVG 1.1//EN" "http://www.w3.org/Graphics/SVG/1.1/DTD/svg11.dtd"><svg t="1542880343084" class="icon" style="" viewBox="0 0 1024 1024" version="1.1" xmlns="http://www.w3.org/2000/svg" p-id="1065" xmlns:xlink="http://www.w3.org/1999/xlink" width="200" height="200"><defs><style type="text/css"></style></defs><path d="M465 496.5h47.6v335.6H465z" fill="#E1F3FC" p-id="1066"></path><path d="M527.5 847H450V481.6h77.5V847z m-47.6-29.8h17.8V511.4h-17.8v305.8z" fill="#8A278E" p-id="1067"></path><path d="M604.3 848.1H372.1c-8.2 0-14.9-6.7-14.9-14.9s6.7-14.9 14.9-14.9h232.2c8.2 0 14.9 6.7 14.9 14.9s-6.6 14.9-14.9 14.9z" fill="#8A278E" p-id="1068"></path><path d="M498.8 560.6H484c-43.3 0-78.3-35.1-78.3-78.3v-11.5h171.4v11.5c0 43.3-35.1 78.3-78.3 78.3z" fill="#F39BC2" p-id="1069"></path><path d="M498.8 575.5H484c-51.4 0-93.3-41.8-93.3-93.3v-26.5H592v26.5c0 51.5-41.8 93.3-93.2 93.3z m-78.1-89.8c1.8 33.4 29.5 60 63.3 60h14.8c33.8 0 61.6-26.6 63.3-60H420.7z" fill="#8A278E" p-id="1070"></path><path d="M102.9 329.1c-11.9 0-21.5 9.6-21.5 21.5v102.1h43V350.6c0-11.8-9.6-21.5-21.5-21.5z" fill="#F39BC2" p-id="1071"></path><path d="M139.4 467.7H66.5V350.6c0-20.1 16.3-36.4 36.4-36.4 20.1 0 36.4 16.3 36.4 36.4v117.1z m-43.1-29.8h13.2v-87.2c0-3.6-3-6.6-6.6-6.6-3.6 0-6.6 3-6.6 6.6v87.2z" fill="#8A278E" p-id="1072"></path><path d="M72.7 551.9l291.8-70.7-22.2-91.7-291.8 70.8c-16 31.9-6.6 70.6 22.2 91.6z" fill="#B0E2F9" p-id="1073"></path><path d="M353.2 434.4L44.6 509.2c3.8 16.7 13.4 32 28.1 42.7l291.8-70.7-11.3-46.8z" fill="#98D0EA" p-id="1074"></path><path d="M69.5 568.1l-5.6-4.1c-34.8-25.4-46.1-71.9-26.8-110.4l3.1-6.2 313-75.9 29.3 120.7-313 75.9zM61.2 473c-8.1 22.1-2.1 46.8 15.2 62.7l270.1-65.5-15.2-62.7L61.2 473z" fill="#8A278E" p-id="1075"></path><path d="M660.9 447.6l-349.1 84.6c-41.8-43.4-57-106-39.7-163.8l349.1-84.6 39.7 163.8z" fill="#E1F3FC" p-id="1076"></path><path d="M276.2 476.1c7.9 20.5 19.9 39.6 35.6 56l349.1-84.6-14.8-61.1-369.9 89.7z" fill="#C7D5DC" p-id="1077"></path><path d="M307 548.7l-5.9-6.2c-45.5-47.2-62.1-115.6-43.2-178.4l2.5-8.2 371.9-90.1L679 458.6l-372 90.1z m-22.8-167.9c-11.4 47.5 0.8 97.8 32.7 134.8l326-79-32.7-134.8-326 79z" fill="#8A278E" p-id="1078"></path><path d="M665 464.7l301.5-73.1 3-8.4c24.6-67.7 4.2-143.6-51.1-189.8L617 266.6c-14.5 69.9 3.1 142.6 48 198.1z" fill="#B0E2F9" p-id="1079"></path><path d="M628.4 401.5c8.8 22.5 21.1 43.7 36.6 62.9l301.5-73.1 3-8.4c7.9-21.8 11.2-44.4 10.1-66.6l-351.2 85.2z" fill="#98D0EA" p-id="1080"></path><path d="M659.4 481.5l-5.9-7.3c-47.9-59.2-66.6-136-51-210.6l1.9-9.2 317.9-77.1 5.8 4.8c59.9 50.1 82.2 133 55.5 206.3l-5.8 15.9-318.4 77.2z m-29.5-202.7c-9.9 59.8 4.8 120.5 41 169.2l284.3-68.9 0.3-0.9c21.6-59.3 5-126-41.1-168.4l-284.5 69z" fill="#8A278E" p-id="1081"></path></svg>